<?xml version="1.0" encoding="UTF-8"?>
<svg width="576px" height="512px" viewBox="0 0 576 512" version="1.1" xmlns="http://www.w3.org/2000/svg" xmlns:xlink="http://www.w3.org/1999/xlink">
    <!-- Generator: Sketch 51.3 (57544) - http://www.bohemiancoding.com/sketch -->
    <title>analytics-light</title>
    <desc>Created with Sketch.</desc>
    <defs></defs>
    <g id="Page-1" stroke="none" stroke-width="1" fill="none" fill-rule="evenodd">
        <g id="analytics-light" fill="#EC7673" fill-rule="nonzero">
            <path d="M80,352 L16,352 C7.16,352 0,359.16 0,368 L0,496 C0,504.84 7.16,512 16,512 L80,512 C88.84,512 96,504.84 96,496 L96,368 C96,359.16 88.84,352 80,352 Z M64,480 L32,480 L32,384 L64,384 L64,480 Z M560,192 L496,192 C487.16,192 480,199.16 480,208 L480,496 C480,504.84 487.16,512 496,512 L560,512 C568.84,512 576,504.84 576,496 L576,208 C576,199.16 568.84,192 560,192 Z M544,480 L512,480 L512,224 L544,224 L544,480 Z M502.77,88.68 C510.12,93.24 518.71,96 528,96 C554.51,96 576,74.51 576,48 C576,21.49 554.51,0 528,0 C501.49,0 480,21.49 480,48 C480,53.51 481.12,58.71 482.83,63.64 L393.23,135.32 C385.88,130.75 377.29,127.99 368,127.99 C358.71,127.99 350.12,130.75 342.77,135.32 L253.17,63.64 C254.88,58.72 256,53.51 256,48 C256,21.49 234.51,0 208,0 C181.49,0 160,21.49 160,48 C160,55.4 161.81,62.32 164.8,68.58 L68.58,164.8 C62.32,161.81 55.4,160 48,160 C21.49,160 0,181.49 0,208 C0,234.51 21.49,256 48,256 C74.51,256 96,234.51 96,208 C96,200.6 94.19,193.68 91.2,187.42 L187.42,91.2 C193.68,94.19 200.6,96 208,96 C217.29,96 225.88,93.24 233.23,88.67 L322.83,160.35 C321.12,165.28 320,170.49 320,176 C320,202.51 341.49,224 368,224 C394.51,224 416,202.51 416,176 C416,170.49 414.88,165.28 413.17,160.35 L502.77,88.68 Z M528,32 C536.82,32 544,39.18 544,48 C544,56.82 536.82,64 528,64 C519.18,64 512,56.82 512,48 C512,39.18 519.18,32 528,32 Z M48,224 C39.18,224 32,216.82 32,208 C32,199.18 39.18,192 48,192 C56.82,192 64,199.18 64,208 C64,216.82 56.82,224 48,224 Z M208,64 C199.18,64 192,56.82 192,48 C192,39.18 199.18,32 208,32 C216.82,32 224,39.18 224,48 C224,56.82 216.82,64 208,64 Z M368,192 C359.18,192 352,184.82 352,176 C352,167.18 359.18,160 368,160 C376.82,160 384,167.18 384,176 C384,184.82 376.82,192 368,192 Z M240,192 L176,192 C167.16,192 160,199.16 160,208 L160,496 C160,504.84 167.16,512 176,512 L240,512 C248.84,512 256,504.84 256,496 L256,208 C256,199.16 248.84,192 240,192 Z M224,480 L192,480 L192,224 L224,224 L224,480 Z M400,320 L336,320 C327.16,320 320,327.16 320,336 L320,496 C320,504.84 327.16,512 336,512 L400,512 C408.84,512 416,504.84 416,496 L416,336 C416,327.16 408.84,320 400,320 Z M384,480 L352,480 L352,352 L384,352 L384,480 Z" id="Shape"></path>
        </g>
    </g>
</svg>